<mxfile host="Electron" modified="2024-06-07T21:48:30.157Z" agent="Mozilla/5.0 (Windows NT 10.0; Win64; x64) AppleWebKit/537.36 (KHTML, like Gecko) draw.io/24.5.1 Chrome/124.0.6367.207 Electron/30.0.6 Safari/537.36" etag="l6oSfs7pDri-ln8bdNfF" version="24.5.1" type="device">
  <diagram name="Página-1" id="wv6QgzYByTUMfgWl3Zkv">
    <mxGraphModel dx="2261" dy="844" grid="1" gridSize="10" guides="1" tooltips="1" connect="1" arrows="1" fold="1" page="1" pageScale="1" pageWidth="827" pageHeight="1169" math="0" shadow="0">
      <root>
        <mxCell id="0" />
        <mxCell id="1" parent="0" />
        <mxCell id="XCbuneasF7sGk9dkvUv_-8" style="edgeStyle=orthogonalEdgeStyle;rounded=0;orthogonalLoop=1;jettySize=auto;html=1;exitX=1;exitY=0.25;exitDx=0;exitDy=0;entryX=1;entryY=0.5;entryDx=0;entryDy=0;" edge="1" parent="1" source="GVjC92De_gSSieesadbL-1" target="XCbuneasF7sGk9dkvUv_-6">
          <mxGeometry relative="1" as="geometry">
            <Array as="points">
              <mxPoint x="870" y="215" />
              <mxPoint x="870" y="620" />
            </Array>
          </mxGeometry>
        </mxCell>
        <mxCell id="XCbuneasF7sGk9dkvUv_-12" style="edgeStyle=orthogonalEdgeStyle;rounded=0;orthogonalLoop=1;jettySize=auto;html=1;exitX=0;exitY=0.25;exitDx=0;exitDy=0;" edge="1" parent="1" source="GVjC92De_gSSieesadbL-1" target="XCbuneasF7sGk9dkvUv_-10">
          <mxGeometry relative="1" as="geometry">
            <mxPoint x="620" y="1000" as="targetPoint" />
            <Array as="points">
              <mxPoint x="40" y="215" />
              <mxPoint x="40" y="1050" />
              <mxPoint x="620" y="1050" />
              <mxPoint x="620" y="994" />
            </Array>
          </mxGeometry>
        </mxCell>
        <mxCell id="XCbuneasF7sGk9dkvUv_-19" style="edgeStyle=orthogonalEdgeStyle;rounded=0;orthogonalLoop=1;jettySize=auto;html=1;exitX=1;exitY=0.5;exitDx=0;exitDy=0;entryX=0;entryY=0.5;entryDx=0;entryDy=0;" edge="1" parent="1" source="GVjC92De_gSSieesadbL-1" target="XCbuneasF7sGk9dkvUv_-17">
          <mxGeometry relative="1" as="geometry" />
        </mxCell>
        <mxCell id="GVjC92De_gSSieesadbL-1" value="&lt;p style=&quot;margin:0px;margin-top:4px;text-align:center;&quot;&gt;&lt;b&gt;usuarios &lt;/b&gt;&lt;br&gt;&lt;/p&gt;&lt;hr size=&quot;1&quot; style=&quot;border-style:solid;&quot;&gt;&lt;p style=&quot;margin:0px;margin-left:4px;&quot;&gt;+ id_usuario&amp;nbsp; Int&lt;br&gt;&lt;/p&gt;&lt;p style=&quot;margin:0px;margin-left:4px;&quot;&gt;+ Nombre_usuario Varchar&lt;/p&gt;&lt;p style=&quot;margin:0px;margin-left:4px;&quot;&gt;+ Email&amp;nbsp; Varchar &lt;br&gt;&lt;/p&gt;&lt;p style=&quot;margin:0px;margin-left:4px;&quot;&gt;+ Nit&amp;nbsp; Int &lt;br&gt;&lt;/p&gt;&lt;p style=&quot;margin:0px;margin-left:4px;&quot;&gt;+Telefono Int&lt;/p&gt;&lt;p style=&quot;margin:0px;margin-left:4px;&quot;&gt;+ Contraseña Varchar&lt;/p&gt;&lt;p style=&quot;margin:0px;margin-left:4px;&quot;&gt;+ id_rol&amp;nbsp; Int &lt;br&gt;&lt;/p&gt;&lt;hr size=&quot;1&quot; style=&quot;border-style:solid;&quot;&gt;&lt;p style=&quot;margin:0px;margin-left:4px;&quot;&gt;+Registro():&lt;/p&gt;&lt;p style=&quot;margin:0px;margin-left:4px;&quot;&gt;+Login():&lt;/p&gt;&lt;p style=&quot;margin:0px;margin-left:4px;&quot;&gt;+ActualizarPerfil():&amp;nbsp; &lt;br&gt;&lt;/p&gt;" style="verticalAlign=top;align=left;overflow=fill;html=1;whiteSpace=wrap;" parent="1" vertex="1">
          <mxGeometry x="170" y="160" width="160" height="220" as="geometry" />
        </mxCell>
        <mxCell id="GVjC92De_gSSieesadbL-2" value="&lt;p style=&quot;margin:0px;margin-top:4px;text-align:center;&quot;&gt;&lt;b&gt;Rol &lt;/b&gt;&lt;br&gt;&lt;/p&gt;&lt;hr size=&quot;1&quot; style=&quot;border-style:solid;&quot;&gt;&lt;p style=&quot;margin:0px;margin-left:4px;&quot;&gt;+ id_rol&amp;nbsp; Int &lt;br&gt;&lt;/p&gt;&lt;p style=&quot;margin:0px;margin-left:4px;&quot;&gt;+ Nombre_rol&amp;nbsp;&amp;nbsp; Varchar &lt;br&gt;&lt;/p&gt;&lt;hr size=&quot;1&quot; style=&quot;border-style:solid;&quot;&gt;&lt;p style=&quot;margin:0px;margin-left:4px;&quot;&gt;+ (Todos los rol Administrador (Actualiza los productos) &lt;br&gt;&lt;/p&gt;&lt;p style=&quot;margin:0px;margin-left:4px;&quot;&gt;+ (Todos los rol 2 ( Aceptan o cancelan Turnos, Asignan&amp;nbsp; disponibilidad)&lt;/p&gt;&lt;p style=&quot;margin:0px;margin-left:4px;&quot;&gt;+(Todos los rol cliente (&lt;span style=&quot;background-color: initial;&quot;&gt;Reservar turnos, Comprar productos)&lt;/span&gt;&lt;/p&gt;" style="verticalAlign=top;align=left;overflow=fill;html=1;whiteSpace=wrap;" parent="1" vertex="1">
          <mxGeometry x="110" y="460" width="160" height="220" as="geometry" />
        </mxCell>
        <mxCell id="XCbuneasF7sGk9dkvUv_-1" value="&lt;p style=&quot;margin:0px;margin-top:4px;text-align:center;&quot;&gt;&lt;b&gt;ReservaTurno&lt;/b&gt;&lt;/p&gt;&lt;hr size=&quot;1&quot; style=&quot;border-style:solid;&quot;&gt;&lt;p style=&quot;margin:0px;margin-left:4px;&quot;&gt;+ id_ReservaTurno: Int&lt;/p&gt;&lt;p style=&quot;margin:0px;margin-left:4px;&quot;&gt;+ id_TipoServicio: Int&lt;/p&gt;&lt;p style=&quot;margin:0px;margin-left:4px;&quot;&gt;+ id_horario: Int&lt;/p&gt;&lt;p style=&quot;margin:0px;margin-left:4px;&quot;&gt;+ Aceptar_Turno: TINYINT&lt;/p&gt;&lt;p style=&quot;margin:0px;margin-left:4px;&quot;&gt;+ Cancelar_Turno: TINYINT&lt;/p&gt;&lt;p style=&quot;margin:0px;margin-left:4px;&quot;&gt;+ id_usuario: Int&lt;/p&gt;&lt;p style=&quot;margin:0px;margin-left:4px;&quot;&gt;&lt;br&gt;&lt;/p&gt;&lt;hr size=&quot;1&quot; style=&quot;border-style:solid;&quot;&gt;&lt;p style=&quot;margin:0px;margin-left:4px;&quot;&gt;&lt;br&gt;&lt;/p&gt;" style="verticalAlign=top;align=left;overflow=fill;html=1;whiteSpace=wrap;" vertex="1" parent="1">
          <mxGeometry x="370" y="495" width="160" height="215" as="geometry" />
        </mxCell>
        <mxCell id="XCbuneasF7sGk9dkvUv_-11" style="edgeStyle=orthogonalEdgeStyle;rounded=0;orthogonalLoop=1;jettySize=auto;html=1;entryX=0;entryY=0.5;entryDx=0;entryDy=0;" edge="1" parent="1" target="XCbuneasF7sGk9dkvUv_-10">
          <mxGeometry relative="1" as="geometry">
            <mxPoint x="550" y="880" as="sourcePoint" />
          </mxGeometry>
        </mxCell>
        <mxCell id="XCbuneasF7sGk9dkvUv_-2" value="&lt;p style=&quot;margin:0px;margin-top:4px;text-align:center;&quot;&gt;&lt;b&gt;Producto&lt;/b&gt;&lt;/p&gt;&lt;hr size=&quot;1&quot; style=&quot;border-style:solid;&quot;&gt;&lt;p style=&quot;margin:0px;margin-left:4px;&quot;&gt;+ id_producto: Int&lt;/p&gt;&lt;p style=&quot;margin:0px;margin-left:4px;&quot;&gt;+ Nombre: Varchar&amp;nbsp;&lt;/p&gt;&lt;p style=&quot;margin:0px;margin-left:4px;&quot;&gt;+ Descripcion: Varchar&amp;nbsp;&lt;/p&gt;&lt;p style=&quot;margin:0px;margin-left:4px;&quot;&gt;+ Cantidad: Int&lt;/p&gt;&lt;p style=&quot;margin:0px;margin-left:4px;&quot;&gt;+ id_categoria_producto: Int&lt;/p&gt;&lt;p style=&quot;margin:0px;margin-left:4px;&quot;&gt;+ Precio: Int&lt;/p&gt;&lt;p style=&quot;margin:0px;margin-left:4px;&quot;&gt;&lt;br&gt;&lt;/p&gt;&lt;p style=&quot;margin:0px;margin-left:4px;&quot;&gt;&lt;br&gt;&lt;/p&gt;" style="verticalAlign=top;align=left;overflow=fill;html=1;whiteSpace=wrap;" vertex="1" parent="1">
          <mxGeometry x="390" y="800" width="160" height="180" as="geometry" />
        </mxCell>
        <mxCell id="XCbuneasF7sGk9dkvUv_-3" value="&lt;p style=&quot;margin:0px;margin-top:4px;text-align:center;&quot;&gt;&lt;b&gt;CategoriaProducto&lt;/b&gt;&lt;/p&gt;&lt;hr size=&quot;1&quot; style=&quot;border-style:solid;&quot;&gt;&lt;p style=&quot;margin:0px;margin-left:4px;&quot;&gt;+ id_categoria_producto: Int&amp;nbsp;&lt;/p&gt;&lt;p style=&quot;margin:0px;margin-left:4px;&quot;&gt;+ Categoria: Varchar&amp;nbsp;&lt;/p&gt;&lt;p style=&quot;margin:0px;margin-left:4px;&quot;&gt;&lt;br&gt;&lt;/p&gt;&lt;hr size=&quot;1&quot; style=&quot;border-style:solid;&quot;&gt;&lt;p style=&quot;margin:0px;margin-left:4px;&quot;&gt;+Actualizar CategoriaProducto():&amp;nbsp;&lt;/p&gt;" style="verticalAlign=top;align=left;overflow=fill;html=1;whiteSpace=wrap;" vertex="1" parent="1">
          <mxGeometry x="95" y="830" width="190" height="160" as="geometry" />
        </mxCell>
        <mxCell id="XCbuneasF7sGk9dkvUv_-5" style="edgeStyle=orthogonalEdgeStyle;rounded=0;orthogonalLoop=1;jettySize=auto;html=1;exitX=1;exitY=0.25;exitDx=0;exitDy=0;entryX=0;entryY=0.539;entryDx=0;entryDy=0;entryPerimeter=0;" edge="1" parent="1" source="XCbuneasF7sGk9dkvUv_-3" target="XCbuneasF7sGk9dkvUv_-2">
          <mxGeometry relative="1" as="geometry" />
        </mxCell>
        <mxCell id="XCbuneasF7sGk9dkvUv_-6" value="&lt;p style=&quot;margin:0px;margin-top:4px;text-align:center;&quot;&gt;&lt;b&gt;TipoServicio&amp;nbsp;&lt;/b&gt;&lt;/p&gt;&lt;hr size=&quot;1&quot; style=&quot;border-style:solid;&quot;&gt;&lt;p style=&quot;margin:0px;margin-left:4px;&quot;&gt;+ id_TipoServicio: Int&amp;nbsp;&lt;/p&gt;&lt;p style=&quot;margin:0px;margin-left:4px;&quot;&gt;+ Nombre: Varchar&lt;/p&gt;&lt;p style=&quot;margin:0px;margin-left:4px;&quot;&gt;+ Descripcion: Varchar&amp;nbsp;&lt;/p&gt;&lt;p style=&quot;margin:0px;margin-left:4px;&quot;&gt;+Precio: Int&amp;nbsp;&lt;/p&gt;&lt;p style=&quot;margin:0px;margin-left:4px;&quot;&gt;+ id_usuario: Int&amp;nbsp;&lt;/p&gt;&lt;p style=&quot;margin:0px;margin-left:4px;&quot;&gt;&amp;nbsp;&lt;/p&gt;&lt;hr size=&quot;1&quot; style=&quot;border-style:solid;&quot;&gt;&lt;p style=&quot;margin:0px;margin-left:4px;&quot;&gt;+ Actualizar tipo de servicio():&lt;/p&gt;&lt;p style=&quot;margin:0px;margin-left:4px;&quot;&gt;+ Agregar nuevos servicio():&amp;nbsp;&lt;/p&gt;" style="verticalAlign=top;align=left;overflow=fill;html=1;whiteSpace=wrap;" vertex="1" parent="1">
          <mxGeometry x="660" y="520" width="170" height="200" as="geometry" />
        </mxCell>
        <mxCell id="XCbuneasF7sGk9dkvUv_-7" style="edgeStyle=orthogonalEdgeStyle;rounded=0;orthogonalLoop=1;jettySize=auto;html=1;exitX=-0.018;exitY=0.19;exitDx=0;exitDy=0;entryX=1;entryY=0.25;entryDx=0;entryDy=0;exitPerimeter=0;" edge="1" parent="1" source="XCbuneasF7sGk9dkvUv_-6" target="XCbuneasF7sGk9dkvUv_-1">
          <mxGeometry relative="1" as="geometry" />
        </mxCell>
        <mxCell id="XCbuneasF7sGk9dkvUv_-9" style="edgeStyle=orthogonalEdgeStyle;rounded=0;orthogonalLoop=1;jettySize=auto;html=1;entryX=0;entryY=0.555;entryDx=0;entryDy=0;entryPerimeter=0;" edge="1" parent="1" target="GVjC92De_gSSieesadbL-1">
          <mxGeometry relative="1" as="geometry">
            <mxPoint x="100" y="500" as="sourcePoint" />
            <Array as="points">
              <mxPoint x="110" y="500" />
              <mxPoint x="90" y="500" />
              <mxPoint x="90" y="282" />
            </Array>
          </mxGeometry>
        </mxCell>
        <mxCell id="XCbuneasF7sGk9dkvUv_-10" value="&lt;p style=&quot;margin:0px;margin-top:4px;text-align:center;&quot;&gt;&lt;b&gt;Compra&lt;/b&gt;&lt;/p&gt;&lt;hr size=&quot;1&quot; style=&quot;border-style:solid;&quot;&gt;&lt;p style=&quot;margin:0px;margin-left:4px;&quot;&gt;+ id_compra: Int&lt;/p&gt;&lt;p style=&quot;margin:0px;margin-left:4px;&quot;&gt;+ Descripcion: Varchar&amp;nbsp;&lt;/p&gt;&lt;p style=&quot;margin:0px;margin-left:4px;&quot;&gt;+ Precio_Total: Int&amp;nbsp;&lt;/p&gt;&lt;p style=&quot;margin:0px;margin-left:4px;&quot;&gt;+ Tipo_Pago: Varchar&lt;/p&gt;&lt;p style=&quot;margin:0px;margin-left:4px;&quot;&gt;+ id_producto: Int&amp;nbsp;&lt;/p&gt;&lt;p style=&quot;margin:0px;margin-left:4px;&quot;&gt;+ id_ usuario: Int&amp;nbsp;&lt;/p&gt;&lt;p style=&quot;margin:0px;margin-left:4px;&quot;&gt;&lt;br&gt;&lt;/p&gt;&lt;p style=&quot;margin:0px;margin-left:4px;&quot;&gt;&lt;br&gt;&lt;/p&gt;&lt;hr size=&quot;1&quot; style=&quot;border-style:solid;&quot;&gt;&lt;p style=&quot;margin:0px;margin-left:4px;&quot;&gt;+ Pagar Productos():&amp;nbsp;&lt;/p&gt;&lt;p style=&quot;margin:0px;margin-left:4px;&quot;&gt;+&amp;nbsp;&lt;span style=&quot;background-color: initial;&quot;&gt;Generar factura():&lt;/span&gt;&lt;/p&gt;" style="verticalAlign=top;align=left;overflow=fill;html=1;whiteSpace=wrap;" vertex="1" parent="1">
          <mxGeometry x="680" y="880" width="160" height="190" as="geometry" />
        </mxCell>
        <mxCell id="XCbuneasF7sGk9dkvUv_-13" style="edgeStyle=orthogonalEdgeStyle;rounded=0;orthogonalLoop=1;jettySize=auto;html=1;exitX=0.75;exitY=1;exitDx=0;exitDy=0;entryX=0;entryY=0.5;entryDx=0;entryDy=0;" edge="1" parent="1" source="GVjC92De_gSSieesadbL-1" target="XCbuneasF7sGk9dkvUv_-1">
          <mxGeometry relative="1" as="geometry" />
        </mxCell>
        <mxCell id="XCbuneasF7sGk9dkvUv_-14" value="&lt;p style=&quot;margin:0px;margin-top:4px;text-align:center;&quot;&gt;&lt;b&gt;CarritoCompra&amp;nbsp;&lt;/b&gt;&lt;/p&gt;&lt;hr size=&quot;1&quot; style=&quot;border-style:solid;&quot;&gt;&lt;p style=&quot;margin:0px;margin-left:4px;&quot;&gt;+ id_carrito_compras: Int&amp;nbsp;&lt;/p&gt;&lt;p style=&quot;margin:0px;margin-left:4px;&quot;&gt;+ id_producto: Int&amp;nbsp;&lt;/p&gt;&lt;p style=&quot;margin:0px;margin-left:4px;&quot;&gt;+ id_ usuario: Int&amp;nbsp;&lt;/p&gt;&lt;p style=&quot;margin:0px;margin-left:4px;&quot;&gt;+ id_compra: Int&amp;nbsp;&lt;/p&gt;&lt;p style=&quot;margin:0px;margin-left:4px;&quot;&gt;&lt;br&gt;&lt;/p&gt;&lt;hr size=&quot;1&quot; style=&quot;border-style:solid;&quot;&gt;&lt;p style=&quot;margin:0px;margin-left:4px;&quot;&gt;+ Agregar productos():&lt;/p&gt;&lt;p style=&quot;margin:0px;margin-left:4px;&quot;&gt;+ Eliminar productos():&lt;br&gt;+ Comprar productos():&amp;nbsp;&lt;/p&gt;" style="verticalAlign=top;align=left;overflow=fill;html=1;whiteSpace=wrap;" vertex="1" parent="1">
          <mxGeometry x="940" y="700" width="160" height="240" as="geometry" />
        </mxCell>
        <mxCell id="XCbuneasF7sGk9dkvUv_-15" value="&lt;p style=&quot;margin:0px;margin-top:4px;text-align:center;&quot;&gt;&lt;b&gt;Factura&amp;nbsp;&lt;/b&gt;&lt;/p&gt;&lt;hr size=&quot;1&quot; style=&quot;border-style:solid;&quot;&gt;&lt;p style=&quot;margin:0px;margin-left:4px;&quot;&gt;+ id_factura: Int&lt;/p&gt;&lt;p style=&quot;margin:0px;margin-left:4px;&quot;&gt;+ Fecha: DataTime&amp;nbsp;&lt;/p&gt;&lt;p style=&quot;margin:0px;margin-left:4px;&quot;&gt;+ id_compra: Int&lt;/p&gt;&lt;p style=&quot;margin:0px;margin-left:4px;&quot;&gt;+ id_usuario: Int&amp;nbsp;&lt;span style=&quot;background-color: initial;&quot;&gt;&amp;nbsp;&lt;/span&gt;&lt;/p&gt;" style="verticalAlign=top;align=left;overflow=fill;html=1;whiteSpace=wrap;" vertex="1" parent="1">
          <mxGeometry x="940" y="1010" width="160" height="150" as="geometry" />
        </mxCell>
        <mxCell id="XCbuneasF7sGk9dkvUv_-16" value="&lt;p style=&quot;margin:0px;margin-top:4px;text-align:center;&quot;&gt;&lt;b&gt;Recordatorio&amp;nbsp;&lt;/b&gt;&lt;/p&gt;&lt;hr size=&quot;1&quot; style=&quot;border-style:solid;&quot;&gt;&lt;p style=&quot;margin:0px;margin-left:4px;&quot;&gt;+ id_recordatorio: Int&amp;nbsp;&lt;/p&gt;&lt;p style=&quot;margin:0px;margin-left:4px;&quot;&gt;+ Mensaje: Varchar&amp;nbsp;&lt;/p&gt;&lt;p style=&quot;margin:0px;margin-left:4px;&quot;&gt;+ id_ReservaTurno: Int&amp;nbsp;&lt;/p&gt;&lt;p style=&quot;margin:0px;margin-left:4px;&quot;&gt;+ id_Horario: Int&amp;nbsp;&lt;/p&gt;&lt;hr size=&quot;1&quot; style=&quot;border-style:solid;&quot;&gt;&lt;p style=&quot;margin:0px;margin-left:4px;&quot;&gt;+ Generar un mensaje():&amp;nbsp;&lt;/p&gt;" style="verticalAlign=top;align=left;overflow=fill;html=1;whiteSpace=wrap;" vertex="1" parent="1">
          <mxGeometry x="930" y="280" width="160" height="160" as="geometry" />
        </mxCell>
        <mxCell id="XCbuneasF7sGk9dkvUv_-20" style="edgeStyle=orthogonalEdgeStyle;rounded=0;orthogonalLoop=1;jettySize=auto;html=1;exitX=1;exitY=0.25;exitDx=0;exitDy=0;entryX=1;entryY=0.5;entryDx=0;entryDy=0;" edge="1" parent="1" source="XCbuneasF7sGk9dkvUv_-17" target="XCbuneasF7sGk9dkvUv_-16">
          <mxGeometry relative="1" as="geometry" />
        </mxCell>
        <mxCell id="XCbuneasF7sGk9dkvUv_-17" value="&lt;p style=&quot;margin:0px;margin-top:4px;text-align:center;&quot;&gt;&lt;span style=&quot;white-space: pre;&quot;&gt;&#x9;&lt;/span&gt;Horario&amp;nbsp;&lt;br&gt;&lt;/p&gt;&lt;hr size=&quot;1&quot; style=&quot;border-style:solid;&quot;&gt;&lt;p style=&quot;margin:0px;margin-left:4px;&quot;&gt;+ id_horario: Int&amp;nbsp;&lt;/p&gt;&lt;p style=&quot;margin:0px;margin-left:4px;&quot;&gt;+ Fecha_Hora: DateTime&amp;nbsp;&lt;/p&gt;&lt;p style=&quot;margin:0px;margin-left:4px;&quot;&gt;+ id_usuario: Int&lt;/p&gt;&lt;hr size=&quot;1&quot; style=&quot;border-style:solid;&quot;&gt;&lt;p style=&quot;margin:0px;margin-left:4px;&quot;&gt;+ mostrar horario disponible():&lt;/p&gt;" style="verticalAlign=top;align=left;overflow=fill;html=1;whiteSpace=wrap;" vertex="1" parent="1">
          <mxGeometry x="530" y="280" width="180" height="140" as="geometry" />
        </mxCell>
        <mxCell id="XCbuneasF7sGk9dkvUv_-18" style="edgeStyle=orthogonalEdgeStyle;rounded=0;orthogonalLoop=1;jettySize=auto;html=1;exitX=0;exitY=0.25;exitDx=0;exitDy=0;entryX=-0.006;entryY=0.302;entryDx=0;entryDy=0;entryPerimeter=0;" edge="1" parent="1" source="XCbuneasF7sGk9dkvUv_-17" target="XCbuneasF7sGk9dkvUv_-1">
          <mxGeometry relative="1" as="geometry">
            <Array as="points">
              <mxPoint x="350" y="315" />
              <mxPoint x="350" y="560" />
            </Array>
          </mxGeometry>
        </mxCell>
        <mxCell id="XCbuneasF7sGk9dkvUv_-21" style="edgeStyle=orthogonalEdgeStyle;rounded=0;orthogonalLoop=1;jettySize=auto;html=1;exitX=0.75;exitY=0;exitDx=0;exitDy=0;entryX=-0.006;entryY=0.4;entryDx=0;entryDy=0;entryPerimeter=0;" edge="1" parent="1" source="XCbuneasF7sGk9dkvUv_-1" target="XCbuneasF7sGk9dkvUv_-16">
          <mxGeometry relative="1" as="geometry">
            <Array as="points">
              <mxPoint x="490" y="440" />
              <mxPoint x="770" y="440" />
              <mxPoint x="770" y="344" />
            </Array>
          </mxGeometry>
        </mxCell>
        <mxCell id="XCbuneasF7sGk9dkvUv_-22" style="edgeStyle=orthogonalEdgeStyle;rounded=0;orthogonalLoop=1;jettySize=auto;html=1;exitX=0.988;exitY=0.184;exitDx=0;exitDy=0;entryX=-0.006;entryY=0.453;entryDx=0;entryDy=0;entryPerimeter=0;exitPerimeter=0;" edge="1" parent="1" source="XCbuneasF7sGk9dkvUv_-10" target="XCbuneasF7sGk9dkvUv_-15">
          <mxGeometry relative="1" as="geometry" />
        </mxCell>
        <mxCell id="XCbuneasF7sGk9dkvUv_-23" style="edgeStyle=orthogonalEdgeStyle;rounded=0;orthogonalLoop=1;jettySize=auto;html=1;entryX=0;entryY=0.613;entryDx=0;entryDy=0;entryPerimeter=0;exitX=0;exitY=0.136;exitDx=0;exitDy=0;exitPerimeter=0;" edge="1" parent="1" source="GVjC92De_gSSieesadbL-1" target="XCbuneasF7sGk9dkvUv_-15">
          <mxGeometry relative="1" as="geometry">
            <mxPoint x="160" y="190" as="sourcePoint" />
            <Array as="points">
              <mxPoint x="100" y="190" />
              <mxPoint x="100" y="140" />
              <mxPoint x="-110" y="140" />
              <mxPoint x="-110" y="1102" />
            </Array>
          </mxGeometry>
        </mxCell>
        <mxCell id="XCbuneasF7sGk9dkvUv_-24" style="edgeStyle=orthogonalEdgeStyle;rounded=0;orthogonalLoop=1;jettySize=auto;html=1;exitX=1;exitY=0.25;exitDx=0;exitDy=0;entryX=0;entryY=0.217;entryDx=0;entryDy=0;entryPerimeter=0;" edge="1" parent="1" source="XCbuneasF7sGk9dkvUv_-2" target="XCbuneasF7sGk9dkvUv_-14">
          <mxGeometry relative="1" as="geometry" />
        </mxCell>
        <mxCell id="XCbuneasF7sGk9dkvUv_-25" style="edgeStyle=orthogonalEdgeStyle;rounded=0;orthogonalLoop=1;jettySize=auto;html=1;exitX=0.75;exitY=0;exitDx=0;exitDy=0;entryX=1;entryY=0.292;entryDx=0;entryDy=0;entryPerimeter=0;" edge="1" parent="1" source="GVjC92De_gSSieesadbL-1" target="XCbuneasF7sGk9dkvUv_-14">
          <mxGeometry relative="1" as="geometry">
            <Array as="points">
              <mxPoint x="290" y="140" />
              <mxPoint x="1150" y="140" />
              <mxPoint x="1150" y="770" />
            </Array>
          </mxGeometry>
        </mxCell>
        <mxCell id="XCbuneasF7sGk9dkvUv_-26" style="edgeStyle=orthogonalEdgeStyle;rounded=0;orthogonalLoop=1;jettySize=auto;html=1;exitX=0.75;exitY=0;exitDx=0;exitDy=0;entryX=-0.006;entryY=0.333;entryDx=0;entryDy=0;entryPerimeter=0;" edge="1" parent="1" source="XCbuneasF7sGk9dkvUv_-10" target="XCbuneasF7sGk9dkvUv_-14">
          <mxGeometry relative="1" as="geometry" />
        </mxCell>
      </root>
    </mxGraphModel>
  </diagram>
</mxfile>
